<?xml version="1.0" encoding="UTF-8" standalone="no"?>
<svg
   xmlns:dc="http://purl.org/dc/elements/1.1/"
   xmlns:cc="http://creativecommons.org/ns#"
   xmlns:rdf="http://www.w3.org/1999/02/22-rdf-syntax-ns#"
   xmlns:svg="http://www.w3.org/2000/svg"
   xmlns="http://www.w3.org/2000/svg"
   viewBox="0 0 1172.3253 728.30933"
   height="728.30933"
   width="1172.3253"
   xml:space="preserve"
   id="svg2"
   version="1.1"><metadata
     id="metadata8"><rdf:RDF><cc:Work
         rdf:about=""><dc:format>image/svg+xml</dc:format><dc:type
           rdf:resource="http://purl.org/dc/dcmitype/StillImage" /></cc:Work></rdf:RDF></metadata><defs
     id="defs6"><clipPath
       id="clipPath24"
       clipPathUnits="userSpaceOnUse"><path
         id="path22"
         d="M 0,546.232 H 879.244 V 0 H 0 Z" /></clipPath></defs><g
     transform="matrix(1.3333333,0,0,-1.3333333,0,728.30933)"
     id="g10"><g
       transform="translate(127.3852,151.3802)"
       id="g12"><path
         id="path14"
         style="fill:#213132;fill-opacity:1;fill-rule:nonzero;stroke:none"
         d="m 0,0 h 7.808 v 42.202 h 41.935 v 7.541 H 7.808 v 39.202 h 48.747 v 7.541 L 0,96.486 Z" /></g><path
       id="path16"
       style="fill:#213132;fill-opacity:1;fill-rule:nonzero;stroke:none"
       d="m 197.233,151.38 h 7.808 v 96.486 h -7.808 z" /><g
       id="g18"><g
         clip-path="url(#clipPath24)"
         id="g20"><g
           transform="translate(287.5112,202.1605)"
           id="g26"><path
             id="path28"
             style="fill:#213132;fill-opacity:1;fill-rule:nonzero;stroke:none"
             d="m 0,0 c 0,-6.195 -0.441,-11.743 -1.31,-16.489 -0.866,-4.715 -2.247,-9.23 -4.104,-13.42 -1.799,-4.056 -4.377,-7.336 -7.662,-9.749 -3.237,-2.376 -7.14,-3.581 -11.6,-3.581 h -28.416 v 81.404 h 28.416 c 5.952,0 10.711,-1.926 14.548,-5.887 3.891,-4.019 6.572,-8.869 7.97,-14.414 C -0.726,12.178 0,6.168 0,0 m 1.153,30.824 c -2.478,4.628 -5.943,8.304 -10.299,10.928 -4.359,2.624 -9.584,3.954 -15.53,3.954 H -60.899 V -50.78 h 36.223 c 5.879,0 11.096,1.452 15.507,4.315 4.394,2.851 7.851,6.779 10.277,11.677 2.36,4.767 4.132,9.989 5.268,15.523 1.127,5.505 1.699,11.493 1.699,17.796 0,6.305 -0.549,12.18 -1.633,17.463 -1.091,5.319 -2.87,10.31 -5.289,14.83" /></g><g
           transform="translate(313.2856,151.3802)"
           id="g30"><path
             id="path32"
             style="fill:#213132;fill-opacity:1;fill-rule:nonzero;stroke:none"
             d="M 0,0 H 57.623 V 7.541 H 7.808 v 38 h 41.801 v 7.541 H 7.808 v 35.863 h 49.815 v 7.541 L 0,96.486 Z" /></g><g
           transform="translate(394.8129,247.8666)"
           id="g34"><path
             id="path36"
             style="fill:#213132;fill-opacity:1;fill-rule:nonzero;stroke:none"
             d="m 0,0 h -7.808 v -96.486 h 53.35 v 7.541 l -45.542,0 z" /></g><path
           id="path38"
           style="fill:#213132;fill-opacity:1;fill-rule:nonzero;stroke:none"
           d="m 451.51,151.38 h 7.808 v 96.486 h -7.808 z" /><g
           transform="translate(488.6972,247.8666)"
           id="g40"><path
             id="path42"
             style="fill:#213132;fill-opacity:1;fill-rule:nonzero;stroke:none"
             d="m 0,0 h -7.808 v -96.486 h 53.349 v 7.541 l -45.541,0 z" /></g><path
           id="path44"
           style="fill:#213132;fill-opacity:1;fill-rule:nonzero;stroke:none"
           d="m 545.393,151.38 h 7.808 v 96.486 h -7.808 z" /><g
           transform="translate(631.1328,179.056)"
           id="g46"><path
             id="path48"
             style="fill:#213132;fill-opacity:1;fill-rule:nonzero;stroke:none"
             d="m 0,0 c 0,-7.667 -2.075,-13.179 -6.169,-16.38 -4.204,-3.289 -10.453,-4.957 -18.574,-4.957 -8.111,0 -14.285,1.684 -18.351,5.004 -3.976,3.244 -5.992,8.739 -5.992,16.333 v 68.811 h -7.808 V 0 c 0,-10.128 2.79,-17.571 8.29,-22.123 5.415,-4.482 13.442,-6.755 23.861,-6.755 10.408,0 18.499,2.269 24.047,6.743 C 4.946,-17.58 7.808,-10.133 7.808,0 V 68.811 H 0 Z" /></g><g
           transform="translate(736.3017,247.8666)"
           id="g50"><path
             id="path52"
             style="fill:#213132;fill-opacity:1;fill-rule:nonzero;stroke:none"
             d="M 0,0 -31.82,-83.433 -63.642,0 h -12.682 v -96.486 h 7.807 V -9.28 l 32.191,-84.402 h 9.011 l 32.19,84.4 v -87.204 h 7.809 l 0,96.486 z" /></g><g
           transform="translate(438.1847,289.6382)"
           id="g54"><path
             id="path56"
             style="fill:#b1c8bf;fill-opacity:1;fill-rule:nonzero;stroke:none"
             d="m 0,0 c -4.44,0 -8.824,0.326 -13.145,0.947 3.966,-8.738 7.54,-17.531 8.984,-25.354 h 9.089 c 1.451,7.859 5.051,16.698 9.04,25.476 C 9.382,0.367 4.722,0 0,0" /></g><g
           transform="translate(455.4106,297.7373)"
           id="g58"><path
             id="path60"
             style="fill:#b1c8bf;fill-opacity:1;fill-rule:nonzero;stroke:none"
             d="m 0,0 c 4.474,9.529 8.852,18.647 10.802,25.975 15.862,59.608 0.873,108.009 -27.644,154.293 -28.517,-46.284 -43.506,-94.685 -27.644,-154.293 1.961,-7.371 6.379,-16.553 10.881,-26.142 5.354,-1.034 10.821,-1.578 16.379,-1.578 5.852,0 11.602,0.602 17.226,1.745" /></g><g
           transform="translate(376.019,320.5459)"
           id="g62"><path
             id="path64"
             style="fill:#62757c;fill-opacity:1;fill-rule:nonzero;stroke:none"
             d="m 0,0 c 10.784,-9.294 22.742,-16.232 35.486,-20.322 -0.253,0.425 -0.501,0.887 -0.735,1.434 -1.397,3.272 -23.242,68.563 -59.83,84.037 C -44.288,31.341 -37.305,-2.351 -8.888,-13.542 -9.096,-8.93 -9.306,-4.886 -9.527,0 -9.445,-0.013 -9.365,-0.031 -9.282,-0.044 -9.298,-0.029 -9.314,-0.015 -9.33,0 Z" /></g><g
           transform="translate(525.4303,385.6948)"
           id="g66"><path
             id="path68"
             style="fill:#b34b33;fill-opacity:1;fill-rule:nonzero;stroke:none"
             d="m 0,0 c -36.589,-15.474 -58.434,-80.765 -59.831,-84.037 -0.235,-0.551 -0.485,-1.015 -0.739,-1.442 12.747,4.09 24.705,11.034 35.491,20.33 h 9.33 c -0.016,-0.015 -0.032,-0.029 -0.048,-0.044 0.082,0.013 0.163,0.031 0.245,0.044 -0.221,-4.886 -0.431,-8.93 -0.64,-13.542 C 12.225,-67.5 19.208,-33.808 0,0" /></g></g></g></g></svg>